<svg xmlns="http://www.w3.org/2000/svg" version="1.1" xmlns:xlink="http://www.w3.org/1999/xlink" xmlns:svgjs="http://svgjs.com/svgjs" width="1440" height="560" preserveAspectRatio="none" viewBox="0 0 1440 560"><g mask="url(&quot;#SvgjsMask1009&quot;)" fill="none"><rect width="1440" height="560" x="0" y="0" fill="rgba(0, 0, 0, 1)"></rect><path d="M-28.07 403.52 a144.98 144.98 0 1 0 289.96 0 a144.98 144.98 0 1 0 -289.96 0z" fill="rgba(184, 186, 189, 0.4)" class="triangle-float3"></path><path d="M499.017,362.07C521.861,362.308,543.148,349.266,553.772,329.042C563.75,310.047,558.496,287.864,547.757,269.289C537.032,250.738,520.428,235.198,499.017,234.335C476.198,233.416,454.189,245.178,442.964,265.067C431.912,284.65,434.951,308.453,446.201,327.922C457.443,347.377,476.548,361.836,499.017,362.07" fill="rgba(184, 186, 189, 0.4)" class="triangle-float2"></path><path d="M548.782,433.847C577.657,432.694,605.956,423.729,622.154,399.798C640.598,372.549,649.316,337.373,633.678,308.423C617.406,278.3,582.909,261.223,548.782,263.969C518.359,266.417,500.223,294.161,484.656,320.414C468.618,347.462,449.034,378.718,464.509,406.092C480.109,433.687,517.108,435.112,548.782,433.847" fill="rgba(184, 186, 189, 0.4)" class="triangle-float1"></path><path d="M1407.588,217.251C1435.509,218.901,1459.157,198.316,1472.763,173.878C1485.973,150.151,1487.92,121.224,1474.048,97.879C1460.45,74.995,1434.203,63.713,1407.588,64.196C1381.849,64.663,1357.001,77.349,1345.182,100.219C1334.14,121.586,1343.2,145.667,1354.517,166.89C1366.816,189.955,1381.495,215.709,1407.588,217.251" fill="rgba(184, 186, 189, 0.4)" class="triangle-float3"></path><path d="M884.217,713.111C946.942,714.589,1010.94,693.409,1043.904,640.024C1078.397,584.162,1076.183,512.803,1042.817,456.261C1009.986,400.626,948.77,366.955,884.217,369.422C823.483,371.743,774.955,414.573,745.309,467.63C716.49,519.206,707.959,581.373,737.055,632.793C766.553,684.923,824.337,711.7,884.217,713.111" fill="rgba(184, 186, 189, 0.4)" class="triangle-float3"></path><path d="M891.527,179.447C915.517,180.268,939.847,172.687,953.171,152.72C968.021,130.466,973.527,100.652,959.172,78.075C945.518,56.6,916.905,53.886,891.527,55.766C869.843,57.373,850.302,68.222,839.269,86.958C828.061,105.992,825.916,129.506,836.782,148.737C847.814,168.262,869.114,178.68,891.527,179.447" fill="rgba(184, 186, 189, 0.4)" class="triangle-float2"></path><path d="M823.389,326.657C846.612,325.322,861.78,305.28,873.661,285.282C885.912,264.663,898.968,240.316,887.056,219.499C875.099,198.604,847.418,195.951,823.389,197.429C802.317,198.726,783.506,208.887,771.985,226.579C759.141,246.303,751.248,270.762,762.002,291.699C773.533,314.149,798.193,328.105,823.389,326.657" fill="rgba(184, 186, 189, 0.4)" class="triangle-float1"></path></g><defs><mask id="SvgjsMask1009"><rect width="1440" height="560" fill="#ffffff"></rect></mask><style>
            @keyframes float1 {
                0%{transform: translate(0, 0)}
                50%{transform: translate(-10px, 0)}
                100%{transform: translate(0, 0)}
            }

            .triangle-float1 {
                animation: float1 5s infinite;
            }

            @keyframes float2 {
                0%{transform: translate(0, 0)}
                50%{transform: translate(-5px, -5px)}
                100%{transform: translate(0, 0)}
            }

            .triangle-float2 {
                animation: float2 4s infinite;
            }

            @keyframes float3 {
                0%{transform: translate(0, 0)}
                50%{transform: translate(0, -10px)}
                100%{transform: translate(0, 0)}
            }

            .triangle-float3 {
                animation: float3 6s infinite;
            }
        </style></defs></svg>