<?xml version="1.0" encoding="utf-8"?>
<!-- Generator: Adobe Illustrator 26.0.2, SVG Export Plug-In . SVG Version: 6.00 Build 0)  -->
<svg version="1.1" id="Warstwa_1" xmlns="http://www.w3.org/2000/svg" xmlns:xlink="http://www.w3.org/1999/xlink" x="0px" y="0px"
	 viewBox="0 0 430 430" style="enable-background:new 0 0 430 430;" xml:space="preserve">
<style type="text/css">
	.st0{fill:url(#SVGID_1_);}
	.st1{fill:url(#SVGID_00000014628825576369411260000016979250879891398300_);}
	.st2{fill:url(#SVGID_00000126299721202646871150000007173853750354456463_);}
	.st3{fill:url(#SVGID_00000112595481168862503410000017669575906598652091_);}
	.st4{fill:url(#SVGID_00000034769418858086622600000016574039769885270205_);}
	.st5{fill:url(#SVGID_00000106835245592971809120000004831865350061540788_);}
	.st6{fill:url(#SVGID_00000072996651001512797600000001860220651961095068_);}
	.st7{fill:url(#SVGID_00000106826222510084259480000005467534703724712357_);}
	.st8{fill:url(#SVGID_00000087389417327441442970000006334362103203587210_);}
	.st9{fill:url(#SVGID_00000012438093846244887390000002129448523683274386_);}
	.st10{fill:url(#SVGID_00000153668195282654244290000013980636311814563747_);}
	.st11{fill:url(#SVGID_00000152234860341360274130000013867249946719929268_);}
	.st12{fill:url(#SVGID_00000050653332924989699640000017599775145892628111_);}
	.st13{fill:url(#SVGID_00000009581165377379275860000008548403394733231548_);}
	.st14{fill:url(#SVGID_00000158029809615111205040000001777034861968712602_);}
	.st15{fill:url(#SVGID_00000077283534853845080580000009477396695529370533_);}
	.st16{fill:url(#SVGID_00000049193676438618316500000001512873614254705325_);}
	.st17{fill:url(#SVGID_00000132088929700687295080000017199094875836224950_);}
	.st18{fill:url(#SVGID_00000010991254101274403720000015322363041381244055_);}
	.st19{fill:url(#SVGID_00000160881326295259500300000015640843303290347696_);}
	.st20{fill:url(#SVGID_00000095334465023219225100000008392316534022232196_);}
	.st21{fill:url(#SVGID_00000120547477191760281450000003136565330220191904_);}
	.st22{fill:url(#SVGID_00000059301110143244087780000005814502579167830930_);}
	.st23{fill:url(#SVGID_00000028309559435410948350000012508622778381612459_);}
	.st24{fill:url(#SVGID_00000021089528914642989930000015465463762365585589_);}
	.st25{fill:url(#SVGID_00000116202352311776400030000014239582461782702010_);}
	.st26{fill:url(#SVGID_00000137844492923804206090000015530708292229524395_);}
	.st27{fill:url(#SVGID_00000075872459634593399780000010200537042724714163_);}
	.st28{fill:url(#SVGID_00000058589593732739026500000011446923684932052916_);}
	.st29{fill:url(#SVGID_00000038374175090857789460000002717553186973012616_);}
	.st30{fill:url(#SVGID_00000105405034225642885240000000773967169051576208_);}
	.st31{fill:url(#SVGID_00000086684885759257322050000006217008234351793281_);}
</style>
<linearGradient id="SVGID_1_" gradientUnits="userSpaceOnUse" x1="164.7184" y1="74.449" x2="354.7031" y2="264.4336">
	<stop  offset="0" style="stop-color:#cb5eee"/>
	<stop  offset="1" style="stop-color:#4be1ec"/>
</linearGradient>
<path class="st0" d="M379.51,58.49c0.02-0.07,0.04-0.15,0.05-0.22c0.05-0.21,0.09-0.43,0.12-0.64c0.01-0.06,0.02-0.13,0.03-0.19
	c0.02-0.25,0.03-0.5,0.02-0.75c0-0.09-0.01-0.19-0.01-0.28c-0.01-0.21-0.04-0.42-0.07-0.62c-0.01-0.07-0.02-0.14-0.04-0.21
	c-0.05-0.23-0.11-0.46-0.18-0.69c-0.03-0.08-0.06-0.17-0.09-0.25c-0.08-0.21-0.17-0.42-0.27-0.62c-0.03-0.06-0.06-0.12-0.09-0.18
	c-0.11-0.2-0.23-0.4-0.37-0.59c-0.06-0.08-0.11-0.16-0.18-0.24c-0.13-0.17-0.26-0.33-0.41-0.48c-0.04-0.04-0.07-0.09-0.11-0.13
	c-0.03-0.03-0.07-0.06-0.1-0.09c-0.16-0.16-0.33-0.3-0.51-0.44c-0.08-0.06-0.16-0.12-0.24-0.18c-0.18-0.12-0.36-0.24-0.55-0.34
	c-0.06-0.03-0.11-0.07-0.17-0.1c-0.22-0.11-0.44-0.21-0.67-0.3c-0.08-0.03-0.17-0.06-0.25-0.09c-0.21-0.07-0.42-0.13-0.64-0.17
	c-0.07-0.02-0.15-0.03-0.22-0.04c-0.22-0.04-0.44-0.06-0.66-0.08c-0.09-0.01-0.19-0.01-0.28-0.01c-0.24-0.01-0.48,0-0.72,0.02
	c-0.07,0.01-0.13,0.02-0.2,0.02c-0.22,0.03-0.44,0.07-0.66,0.12c-0.08,0.02-0.15,0.03-0.22,0.05c-0.26,0.07-0.52,0.16-0.77,0.26
	c-0.01,0-0.02,0.01-0.03,0.01L54.08,185.74c-2.39,1.02-3.91,3.4-3.82,5.99s1.76,4.87,4.22,5.72l132.35,45.96l44.29,131.78
	c0.83,2.47,3.09,4.17,5.69,4.27c0.09,0,0.17,0.01,0.26,0.01c2.5,0,4.77-1.48,5.76-3.79L379.23,59.3c0.01-0.02,0.01-0.03,0.02-0.05
	C379.35,59,379.44,58.75,379.51,58.49z M346.16,75.24L190.14,231.27L73.97,190.92L346.16,75.24z M237.8,355.64l-38.81-115.46
	L354.72,84.45L237.8,355.64z"/>
</svg>
