<?xml version="1.0" standalone="no"?>
<svg xmlns:xlink="http://www.w3.org/1999/xlink" id="wave" style="transform:rotate(180deg); transition: 0.3s" viewBox="0 0 1440 180" version="1.1" xmlns="http://www.w3.org/2000/svg"><defs><linearGradient id="sw-gradient-0" x1="0" x2="0" y1="1" y2="0"><stop stop-color="rgba(0, 0, 0, 1)" offset="0%"/><stop stop-color="rgba(0, 0, 0, 1)" offset="100%"/></linearGradient></defs><path style="transform:translate(0, 0px); opacity:1" fill="url(#sw-gradient-0)" d="M0,0L48,0C96,0,192,0,288,3C384,6,480,12,576,27C672,42,768,66,864,87C960,108,1056,126,1152,111C1248,96,1344,48,1440,33C1536,18,1632,36,1728,48C1824,60,1920,66,2016,72C2112,78,2208,84,2304,90C2400,96,2496,102,2592,105C2688,108,2784,108,2880,90C2976,72,3072,36,3168,18C3264,0,3360,0,3456,24C3552,48,3648,96,3744,117C3840,138,3936,132,4032,132C4128,132,4224,138,4320,126C4416,114,4512,84,4608,75C4704,66,4800,78,4896,84C4992,90,5088,90,5184,102C5280,114,5376,138,5472,129C5568,120,5664,78,5760,72C5856,66,5952,96,6048,96C6144,96,6240,66,6336,60C6432,54,6528,72,6624,84C6720,96,6816,102,6864,105L6912,108L6912,180L6864,180C6816,180,6720,180,6624,180C6528,180,6432,180,6336,180C6240,180,6144,180,6048,180C5952,180,5856,180,5760,180C5664,180,5568,180,5472,180C5376,180,5280,180,5184,180C5088,180,4992,180,4896,180C4800,180,4704,180,4608,180C4512,180,4416,180,4320,180C4224,180,4128,180,4032,180C3936,180,3840,180,3744,180C3648,180,3552,180,3456,180C3360,180,3264,180,3168,180C3072,180,2976,180,2880,180C2784,180,2688,180,2592,180C2496,180,2400,180,2304,180C2208,180,2112,180,2016,180C1920,180,1824,180,1728,180C1632,180,1536,180,1440,180C1344,180,1248,180,1152,180C1056,180,960,180,864,180C768,180,672,180,576,180C480,180,384,180,288,180C192,180,96,180,48,180L0,180Z"/></svg>